<svg id="Layer_1" data-name="Layer 1" xmlns="http://www.w3.org/2000/svg" viewBox="0 0 640 512"><title>logo-1</title><path d="M143.79,251.66v39.07h29.15V329.8H111.69a58,58,0,1,1,0-116.09H212.34V174.64H111.62a97.12,97.12,0,1,0,0,194.23H212.34V251.66Z"/><path d="M530.08,174.64H429.36V291.86h68.55V252.79H468.76V213.71H530a58,58,0,1,1,0,116.09H429.36v39.07H530.08a97.12,97.12,0,1,0,0-194.23Z"/><polygon points="378.9 174.64 378.9 329.8 340.7 329.8 340.7 174.64 223.73 174.64 223.73 368.88 263.12 368.88 263.12 213.71 301.31 213.71 301.31 368.88 417.97 368.88 417.97 174.64 378.9 174.64"/></svg>