<svg id="Layer_1" data-name="Layer 1" xmlns="http://www.w3.org/2000/svg" viewBox="0 0 640 512"><title>logo-2</title><rect x="250.4" y="441.61" width="139.21" height="15.47"/><rect x="250.4" y="54.92" width="139.21" height="15.47"/><rect x="436.01" y="364.27" width="69.6" height="15.47"/><rect x="134.39" y="132.26" width="69.6" height="15.47"/><rect x="234.93" y="54.92" width="15.47" height="162.41"/><polygon points="134.39 441.61 134.39 147.73 134.39 132.26 118.92 132.26 118.92 457.08 250.4 457.08 250.4 441.61 134.39 441.61"/><rect x="389.6" y="294.67" width="15.47" height="162.41"/><polygon points="389.61 54.92 389.61 70.39 505.61 70.39 505.61 364.27 505.61 379.74 521.08 379.74 521.08 54.92 389.61 54.92"/><rect x="250.4" y="248.27" width="139.21" height="15.47"/><rect x="234.93" y="248.27" width="15.47" height="15.47"/><rect x="389.6" y="248.27" width="15.47" height="15.47"/></svg>