<svg id="Layer_1" data-name="Layer 1" xmlns="http://www.w3.org/2000/svg" viewBox="0 0 640 512"><title>logo-3</title><polygon points="512.53 243.25 512.53 448.54 127.47 448.54 127.47 63.47 528.58 63.47 528.58 47.42 111.42 47.42 111.42 464.58 528.58 464.58 528.58 243.25 512.53 243.25"/><rect x="166.05" y="385.96" width="288.8" height="16.04"/><rect x="362.59" y="297.72" width="92.26" height="104.29"/><rect x="362.59" y="113.2" width="165.99" height="104.29"/><rect x="222.97" y="113.2" width="305.61" height="16.04"/><rect x="287.91" y="243.16" width="240.67" height="16.04"/><rect x="29.67" y="249.58" width="288.8" height="16.04" transform="translate(-83.53 431.67) rotate(-90)"/><rect x="110.66" y="225.52" width="240.67" height="16.04" transform="translate(-2.55 464.53) rotate(-90)"/><rect x="220.52" y="230.71" width="160.36" height="41.54" transform="translate(49.22 552.17) rotate(-90)"/></svg>