<svg id="Layer_1" data-name="Layer 1" xmlns="http://www.w3.org/2000/svg" viewBox="0 0 1843.21 1278.96"><title>logo-4</title><path d="M386.1,755.5a166.07,166.07,0,0,1,3.1,32c0,109.8-73.6,187.5-184.4,187.5a192,192,0,0,1,0-384c51.9,0,95.1,18.9,128.6,50.3l-52.1,50c-14.1-13.6-39-29.6-76.5-29.6-65.5,0-118.9,54.2-118.9,121.3s53.4,121.3,118.9,121.3c76,0,104.5-54.7,109-82.8h-109v-66Zm185.4,6.4V706.2h-56v55.7H459.8v56h55.7v55.7h56V817.9h55.7v-56Z" transform="translate(466.05 303.96)"/><rect x="1443.91" y="570.12" width="139.21" height="15.47"/><rect x="1443.91" y="183.43" width="139.21" height="15.47"/><rect x="1629.52" y="492.78" width="69.6" height="15.47"/><rect x="1327.9" y="260.76" width="69.6" height="15.47"/><rect x="1428.44" y="183.43" width="15.47" height="162.41"/><polygon points="1327.9 570.12 1327.9 276.23 1327.9 260.76 1312.43 260.76 1312.43 585.59 1443.91 585.59 1443.91 570.12 1327.9 570.12"/><rect x="1583.12" y="423.17" width="15.47" height="162.41"/><polygon points="1583.12 183.43 1583.12 198.89 1699.13 198.89 1699.13 492.78 1699.13 508.25 1714.6 508.25 1714.6 183.43 1583.12 183.43"/><rect x="1443.91" y="376.77" width="139.21" height="15.47"/><rect x="1428.44" y="376.77" width="15.47" height="15.47"/><rect x="1583.12" y="376.77" width="15.47" height="15.47"/><polygon points="401.12 195.83 401.12 401.12 16.05 401.12 16.05 16.05 417.16 16.05 417.16 0 0 0 0 417.16 417.16 417.16 417.16 195.83 401.12 195.83"/><rect x="54.63" y="338.54" width="288.8" height="16.04"/><rect x="251.17" y="250.3" width="92.26" height="104.29"/><rect x="251.17" y="65.78" width="165.99" height="104.29"/><rect x="111.55" y="65.78" width="305.61" height="16.04"/><rect x="176.49" y="195.74" width="240.67" height="16.04"/><rect x="-547.8" y="-101.79" width="288.8" height="16.04" transform="translate(156.42 -193.22) rotate(-90)"/><rect x="-466.82" y="-125.86" width="240.67" height="16.04" transform="translate(237.41 -160.36) rotate(-90)"/><rect x="-356.95" y="-120.67" width="160.36" height="41.54" transform="translate(289.17 -72.72) rotate(-90)"/><rect x="732.17" y="766.26" width="304.38" height="34.1"/><polygon points="786.48 600.31 786.48 634.41 786.48 668.51 1036.54 668.51 1036.54 634.41 1036.54 600.31 786.48 600.31"/><polygon points="786.48 451.41 786.48 485.51 786.48 519.61 1036.54 519.61 1036.54 485.51 1036.54 451.41 786.48 451.41"/><polygon points="677.86 559.96 701.97 584.07 726.08 608.18 834.63 499.63 810.52 475.52 786.41 451.41 677.86 559.96"/><polygon points="834.63 620.28 810.52 644.4 786.41 668.51 677.86 559.96 701.97 535.85 726.08 511.73 834.63 620.28"/><rect x="732.17" y="319.55" width="304.38" height="34.1"/><polygon points="756.32 343.67 732.2 319.55 535.56 516.2 583.78 516.2 756.32 343.67"/><polygon points="756.32 776.25 732.2 800.36 535.56 603.72 583.78 603.72 756.32 776.25"/><path d="M893.75,461.65v39.07H922.9v39.07H861.65a58,58,0,1,1,0-116.09H962.3V384.63H861.58a97.12,97.12,0,1,0,0,194.23H962.3V461.65Z" transform="translate(466.05 303.96)"/><path d="M1280,384.63H1179.33V501.85h68.55V462.78h-29.15V423.7H1280a58,58,0,1,1,0,116.09H1179.33v39.07H1280a97.12,97.12,0,1,0,0-194.23Z" transform="translate(466.05 303.96)"/><polygon points="1594.91 688.59 1594.91 843.75 1556.71 843.75 1556.71 688.59 1439.75 688.59 1439.75 882.82 1479.13 882.82 1479.13 727.66 1517.33 727.66 1517.33 882.82 1633.98 882.82 1633.98 688.59 1594.91 688.59"/></svg>